<svg width="30" height="30" viewBox="0 0 30 30" fill="none" xmlns="http://www.w3.org/2000/svg">
<g id="shield 1" clip-path="url(#clip0_1_2888)">
<g id="surface1">
<path id="Vector" d="M26.483 20.0338C25.6767 22.2192 24.4572 24.1193 22.858 25.681C21.0377 27.4585 18.6541 28.8709 15.7734 29.8785C15.6789 29.9114 15.5802 29.9384 15.4811 29.9584C15.3502 29.9842 15.217 29.9982 15.0849 30H15.0591C14.9183 30 14.7768 29.9858 14.6365 29.9584C14.5374 29.9384 14.4402 29.9114 14.3461 29.8792C11.4619 28.8732 9.07539 27.4615 7.25326 25.684C5.65338 24.1223 4.43412 22.2233 3.62891 20.0379C2.16476 16.0645 2.24807 11.6874 2.31513 8.16993L2.31628 8.11591C2.32978 7.82546 2.33848 7.52036 2.34328 7.18345C2.36777 5.52932 3.68293 4.16083 5.33729 4.06859C8.78654 3.8761 11.4548 2.75115 13.7347 0.52893L13.7547 0.51062C14.1332 0.163406 14.6102 -0.00688251 15.0849 0.000212866C15.5427 0.00616381 15.9986 0.176223 16.3637 0.51062L16.3831 0.52893C18.6635 2.75115 21.3318 3.8761 24.781 4.06859C26.4354 4.16083 27.7506 5.52932 27.7751 7.18345C27.7799 7.52265 27.7886 7.82729 27.8021 8.11591L27.8027 8.1388C27.8696 11.6629 27.9524 16.0487 26.483 20.0338Z" fill="#00DD80"/>
<path id="Vector_2" d="M26.4829 20.0338C25.6765 22.2191 24.457 24.1193 22.8578 25.681C21.0375 27.4585 18.654 28.8709 15.7733 29.8784C15.6787 29.9114 15.5801 29.9384 15.481 29.9583C15.3501 29.9842 15.2168 29.9981 15.0848 30V0.000183105C15.5425 0.00613405 15.9985 0.176193 16.3635 0.51059L16.383 0.528901C18.6634 2.75112 21.3317 3.87607 24.7809 4.06856C26.4353 4.1608 27.7504 5.52929 27.7749 7.18342C27.7797 7.52262 27.7884 7.82726 27.8019 8.11588L27.8026 8.13877C27.8695 11.6629 27.9523 16.0487 26.4829 20.0338Z" fill="#4CC593"/>
<path id="Vector_3" d="M22.5351 15C22.5351 19.1137 19.195 22.4622 15.0848 22.4769H15.0584C10.936 22.4769 7.58154 19.1226 7.58154 15C7.58154 10.8776 10.936 7.52332 15.0584 7.52332H15.0848C19.195 7.53796 22.5351 10.8865 22.5351 15Z" fill="#775050"/>
<path id="Vector_4" d="M22.5351 15C22.5351 19.1137 19.1951 22.4622 15.0848 22.4769V7.52332C19.1951 7.53796 22.5351 10.8865 22.5351 15Z" fill="#638FA5"/>
<path id="Vector_5" d="M18.4521 13.9233L15.0848 17.2911L14.3571 18.0187C14.1852 18.1906 13.9598 18.2764 13.7346 18.2764C13.5091 18.2764 13.2839 18.1906 13.1118 18.0187L11.5474 16.4536C11.2036 16.1098 11.2036 15.553 11.5474 15.2089C11.8907 14.8652 12.4483 14.8652 12.792 15.2089L13.7346 16.1515L17.2074 12.6787C17.5512 12.3347 18.1087 12.3347 18.4521 12.6787C18.7958 13.0224 18.7958 13.58 18.4521 13.9233Z" fill="#67B7C4"/>
<path id="Vector_6" d="M18.4521 13.9233L15.0848 17.2911V14.8011L17.2074 12.6787C17.5512 12.3347 18.1087 12.3347 18.4521 12.6787C18.7958 13.0224 18.7958 13.58 18.4521 13.9233Z" fill="#0A373B"/>
</g>
</g>
<defs>
<clipPath id="clip0_1_2888">
<rect width="30" height="30" fill="white"/>
</clipPath>
</defs>
</svg>
