<svg width="19" height="20" viewBox="0 0 19 20" fill="none" xmlns="http://www.w3.org/2000/svg">
<g id="vuesax/bold/star">
<g id="star">
<path id="Vector" d="M12.1838 4.34169L13.3 6.69169C13.4504 7.01669 13.8542 7.32503 14.1946 7.39169L16.2133 7.74169C17.5038 7.96669 17.8046 8.95003 16.8783 9.93336L15.3029 11.5917C15.0417 11.8667 14.8913 12.4084 14.9783 12.8L15.4296 14.85C15.7858 16.4667 14.9625 17.1 13.6088 16.25L11.7167 15.0667C11.3763 14.85 10.8063 14.85 10.4658 15.0667L8.57376 16.25C7.22001 17.0917 6.39668 16.4667 6.75293 14.85L7.20418 12.8C7.27543 12.4 7.12501 11.8584 6.86376 11.5834L5.28834 9.92503C4.36209 8.95003 4.66293 7.96669 5.95334 7.73336L7.97209 7.38336C8.31251 7.32503 8.71626 7.00836 8.86668 6.68336L9.98293 4.33336C10.5925 3.06669 11.5742 3.06669 12.1838 4.34169Z" fill="#FFBF00"/>
<path id="Vector_2" d="M6.33333 4.79163H1.58333C1.25874 4.79163 0.989578 4.50829 0.989578 4.16663C0.989578 3.82496 1.25874 3.54163 1.58333 3.54163H6.33333C6.65791 3.54163 6.92708 3.82496 6.92708 4.16663C6.92708 4.50829 6.65791 4.79163 6.33333 4.79163Z" fill="#FFBF00"/>
<path id="Vector_3" d="M3.95833 16.4584H1.58333C1.25874 16.4584 0.989578 16.175 0.989578 15.8334C0.989578 15.4917 1.25874 15.2084 1.58333 15.2084H3.95833C4.28291 15.2084 4.55208 15.4917 4.55208 15.8334C4.55208 16.175 4.28291 16.4584 3.95833 16.4584Z" fill="#FFBF00"/>
<path id="Vector_4" d="M2.37499 10.625H1.58333C1.25874 10.625 0.989578 10.3417 0.989578 10C0.989578 9.65833 1.25874 9.375 1.58333 9.375H2.37499C2.69958 9.375 2.96874 9.65833 2.96874 10C2.96874 10.3417 2.69958 10.625 2.37499 10.625Z" fill="#FFBF00"/>
</g>
</g>
</svg>
